<svg width="609" height="318" viewBox="0 0 609 318" fill="none" xmlns="http://www.w3.org/2000/svg">
<rect width="609" height="318" rx="86" fill="#179F97"/>
<path d="M95.8601 69.8182H99.6598V82.4957C99.6598 83.6676 99.3964 84.6856 98.8697 85.5497C98.3488 86.4138 97.6238 87.0797 96.6946 87.5472C95.7654 88.0148 94.6853 88.2486 93.4542 88.2486C92.3593 88.2486 91.3649 88.0562 90.4712 87.6715C89.5835 87.2809 88.8791 86.689 88.3583 85.896C87.8375 85.0969 87.58 84.0937 87.5859 82.8864H91.4123C91.4241 83.3658 91.5218 83.7771 91.7053 84.1204C91.8946 84.4577 92.1521 84.7182 92.4776 84.9016C92.8091 85.0792 93.1997 85.168 93.6495 85.168C94.123 85.168 94.5225 85.0674 94.848 84.8661C95.1795 84.659 95.431 84.3571 95.6026 83.9606C95.7743 83.564 95.8601 83.0758 95.8601 82.4957V69.8182ZM105.972 88H101.853L108.129 69.8182H113.083L119.351 88H115.232L110.677 73.973H110.535L105.972 88ZM105.714 80.8533H115.445V83.854H105.714V80.8533ZM122.554 69.8182L126.948 83.6321H127.117L131.52 69.8182H135.782L129.514 88H124.56L118.283 69.8182H122.554ZM138.687 88H134.567L140.844 69.8182H145.798L152.066 88H147.946L143.392 73.973H143.25L138.687 88ZM138.429 80.8533H148.159V83.854H138.429V80.8533ZM156.394 88.2308C155.808 88.2308 155.305 88.0237 154.884 87.6094C154.47 87.1892 154.263 86.6861 154.263 86.1001C154.263 85.5201 154.47 85.023 154.884 84.6087C155.305 84.1944 155.808 83.9872 156.394 83.9872C156.962 83.9872 157.459 84.1944 157.885 84.6087C158.311 85.023 158.524 85.5201 158.524 86.1001C158.524 86.4908 158.424 86.8488 158.222 87.1744C158.027 87.494 157.77 87.7514 157.45 87.9467C157.131 88.1361 156.778 88.2308 156.394 88.2308ZM163.84 88.2308C163.254 88.2308 162.751 88.0237 162.331 87.6094C161.916 87.1892 161.709 86.6861 161.709 86.1001C161.709 85.5201 161.916 85.023 162.331 84.6087C162.751 84.1944 163.254 83.9872 163.84 83.9872C164.408 83.9872 164.905 84.1944 165.331 84.6087C165.758 85.023 165.971 85.5201 165.971 86.1001C165.971 86.4908 165.87 86.8488 165.669 87.1744C165.473 87.494 165.216 87.7514 164.896 87.9467C164.577 88.1361 164.225 88.2308 163.84 88.2308ZM171.286 88.2308C170.7 88.2308 170.197 88.0237 169.777 87.6094C169.363 87.1892 169.156 86.6861 169.156 86.1001C169.156 85.5201 169.363 85.023 169.777 84.6087C170.197 84.1944 170.7 83.9872 171.286 83.9872C171.854 83.9872 172.352 84.1944 172.778 84.6087C173.204 85.023 173.417 85.5201 173.417 86.1001C173.417 86.4908 173.316 86.8488 173.115 87.1744C172.92 87.494 172.662 87.7514 172.343 87.9467C172.023 88.1361 171.671 88.2308 171.286 88.2308ZM178.733 88.2308C178.147 88.2308 177.643 88.0237 177.223 87.6094C176.809 87.1892 176.602 86.6861 176.602 86.1001C176.602 85.5201 176.809 85.023 177.223 84.6087C177.643 84.1944 178.147 83.9872 178.733 83.9872C179.301 83.9872 179.798 84.1944 180.224 84.6087C180.65 85.023 180.863 85.5201 180.863 86.1001C180.863 86.4908 180.763 86.8488 180.561 87.1744C180.366 87.494 180.109 87.7514 179.789 87.9467C179.469 88.1361 179.117 88.2308 178.733 88.2308ZM186.179 88.2308C185.593 88.2308 185.09 88.0237 184.67 87.6094C184.255 87.1892 184.048 86.6861 184.048 86.1001C184.048 85.5201 184.255 85.023 184.67 84.6087C185.09 84.1944 185.593 83.9872 186.179 83.9872C186.747 83.9872 187.244 84.1944 187.67 84.6087C188.096 85.023 188.309 85.5201 188.309 86.1001C188.309 86.4908 188.209 86.8488 188.008 87.1744C187.812 87.494 187.555 87.7514 187.235 87.9467C186.916 88.1361 186.564 88.2308 186.179 88.2308ZM193.625 88.2308C193.039 88.2308 192.536 88.0237 192.116 87.6094C191.702 87.1892 191.494 86.6861 191.494 86.1001C191.494 85.5201 191.702 85.023 192.116 84.6087C192.536 84.1944 193.039 83.9872 193.625 83.9872C194.193 83.9872 194.69 84.1944 195.117 84.6087C195.543 85.023 195.756 85.5201 195.756 86.1001C195.756 86.4908 195.655 86.8488 195.454 87.1744C195.259 87.494 195.001 87.7514 194.682 87.9467C194.362 88.1361 194.01 88.2308 193.625 88.2308ZM201.071 88.2308C200.485 88.2308 199.982 88.0237 199.562 87.6094C199.148 87.1892 198.941 86.6861 198.941 86.1001C198.941 85.5201 199.148 85.023 199.562 84.6087C199.982 84.1944 200.485 83.9872 201.071 83.9872C201.64 83.9872 202.137 84.1944 202.563 84.6087C202.989 85.023 203.202 85.5201 203.202 86.1001C203.202 86.4908 203.101 86.8488 202.9 87.1744C202.705 87.494 202.447 87.7514 202.128 87.9467C201.808 88.1361 201.456 88.2308 201.071 88.2308ZM208.518 88.2308C207.932 88.2308 207.429 88.0237 207.008 87.6094C206.594 87.1892 206.387 86.6861 206.387 86.1001C206.387 85.5201 206.594 85.023 207.008 84.6087C207.429 84.1944 207.932 83.9872 208.518 83.9872C209.086 83.9872 209.583 84.1944 210.009 84.6087C210.435 85.023 210.648 85.5201 210.648 86.1001C210.648 86.4908 210.548 86.8488 210.347 87.1744C210.151 87.494 209.894 87.7514 209.574 87.9467C209.255 88.1361 208.902 88.2308 208.518 88.2308ZM215.964 88.2308C215.378 88.2308 214.875 88.0237 214.455 87.6094C214.04 87.1892 213.833 86.6861 213.833 86.1001C213.833 85.5201 214.04 85.023 214.455 84.6087C214.875 84.1944 215.378 83.9872 215.964 83.9872C216.532 83.9872 217.029 84.1944 217.455 84.6087C217.882 85.023 218.095 85.5201 218.095 86.1001C218.095 86.4908 217.994 86.8488 217.793 87.1744C217.597 87.494 217.34 87.7514 217.02 87.9467C216.701 88.1361 216.349 88.2308 215.964 88.2308ZM223.41 88.2308C222.824 88.2308 222.321 88.0237 221.901 87.6094C221.487 87.1892 221.28 86.6861 221.28 86.1001C221.28 85.5201 221.487 85.023 221.901 84.6087C222.321 84.1944 222.824 83.9872 223.41 83.9872C223.978 83.9872 224.476 84.1944 224.902 84.6087C225.328 85.023 225.541 85.5201 225.541 86.1001C225.541 86.4908 225.44 86.8488 225.239 87.1744C225.044 87.494 224.786 87.7514 224.467 87.9467C224.147 88.1361 223.795 88.2308 223.41 88.2308ZM230.857 88.2308C230.271 88.2308 229.768 88.0237 229.347 87.6094C228.933 87.1892 228.726 86.6861 228.726 86.1001C228.726 85.5201 228.933 85.023 229.347 84.6087C229.768 84.1944 230.271 83.9872 230.857 83.9872C231.425 83.9872 231.922 84.1944 232.348 84.6087C232.774 85.023 232.987 85.5201 232.987 86.1001C232.987 86.4908 232.887 86.8488 232.685 87.1744C232.49 87.494 232.233 87.7514 231.913 87.9467C231.593 88.1361 231.241 88.2308 230.857 88.2308ZM238.303 88.2308C237.717 88.2308 237.214 88.0237 236.794 87.6094C236.379 87.1892 236.172 86.6861 236.172 86.1001C236.172 85.5201 236.379 85.023 236.794 84.6087C237.214 84.1944 237.717 83.9872 238.303 83.9872C238.871 83.9872 239.368 84.1944 239.794 84.6087C240.22 85.023 240.434 85.5201 240.434 86.1001C240.434 86.4908 240.333 86.8488 240.132 87.1744C239.936 87.494 239.679 87.7514 239.359 87.9467C239.04 88.1361 238.688 88.2308 238.303 88.2308ZM245.749 88.2308C245.163 88.2308 244.66 88.0237 244.24 87.6094C243.826 87.1892 243.618 86.6861 243.618 86.1001C243.618 85.5201 243.826 85.023 244.24 84.6087C244.66 84.1944 245.163 83.9872 245.749 83.9872C246.317 83.9872 246.814 84.1944 247.241 84.6087C247.667 85.023 247.88 85.5201 247.88 86.1001C247.88 86.4908 247.779 86.8488 247.578 87.1744C247.383 87.494 247.125 87.7514 246.806 87.9467C246.486 88.1361 246.134 88.2308 245.749 88.2308ZM253.195 88.2308C252.609 88.2308 252.106 88.0237 251.686 87.6094C251.272 87.1892 251.065 86.6861 251.065 86.1001C251.065 85.5201 251.272 85.023 251.686 84.6087C252.106 84.1944 252.609 83.9872 253.195 83.9872C253.764 83.9872 254.261 84.1944 254.687 84.6087C255.113 85.023 255.326 85.5201 255.326 86.1001C255.326 86.4908 255.225 86.8488 255.024 87.1744C254.829 87.494 254.571 87.7514 254.252 87.9467C253.932 88.1361 253.58 88.2308 253.195 88.2308ZM260.642 88.2308C260.056 88.2308 259.553 88.0237 259.132 87.6094C258.718 87.1892 258.511 86.6861 258.511 86.1001C258.511 85.5201 258.718 85.023 259.132 84.6087C259.553 84.1944 260.056 83.9872 260.642 83.9872C261.21 83.9872 261.707 84.1944 262.133 84.6087C262.559 85.023 262.772 85.5201 262.772 86.1001C262.772 86.4908 262.672 86.8488 262.471 87.1744C262.275 87.494 262.018 87.7514 261.698 87.9467C261.379 88.1361 261.026 88.2308 260.642 88.2308ZM268.088 88.2308C267.502 88.2308 266.999 88.0237 266.579 87.6094C266.164 87.1892 265.957 86.6861 265.957 86.1001C265.957 85.5201 266.164 85.023 266.579 84.6087C266.999 84.1944 267.502 83.9872 268.088 83.9872C268.656 83.9872 269.153 84.1944 269.579 84.6087C270.006 85.023 270.219 85.5201 270.219 86.1001C270.219 86.4908 270.118 86.8488 269.917 87.1744C269.722 87.494 269.464 87.7514 269.144 87.9467C268.825 88.1361 268.473 88.2308 268.088 88.2308ZM275.534 88.2308C274.948 88.2308 274.445 88.0237 274.025 87.6094C273.611 87.1892 273.404 86.6861 273.404 86.1001C273.404 85.5201 273.611 85.023 274.025 84.6087C274.445 84.1944 274.948 83.9872 275.534 83.9872C276.102 83.9872 276.6 84.1944 277.026 84.6087C277.452 85.023 277.665 85.5201 277.665 86.1001C277.665 86.4908 277.564 86.8488 277.363 87.1744C277.168 87.494 276.91 87.7514 276.591 87.9467C276.271 88.1361 275.919 88.2308 275.534 88.2308ZM282.981 88.2308C282.395 88.2308 281.892 88.0237 281.471 87.6094C281.057 87.1892 280.85 86.6861 280.85 86.1001C280.85 85.5201 281.057 85.023 281.471 84.6087C281.892 84.1944 282.395 83.9872 282.981 83.9872C283.549 83.9872 284.046 84.1944 284.472 84.6087C284.898 85.023 285.111 85.5201 285.111 86.1001C285.111 86.4908 285.011 86.8488 284.809 87.1744C284.614 87.494 284.357 87.7514 284.037 87.9467C283.717 88.1361 283.365 88.2308 282.981 88.2308ZM290.427 88.2308C289.841 88.2308 289.338 88.0237 288.918 87.6094C288.503 87.1892 288.296 86.6861 288.296 86.1001C288.296 85.5201 288.503 85.023 288.918 84.6087C289.338 84.1944 289.841 83.9872 290.427 83.9872C290.995 83.9872 291.492 84.1944 291.918 84.6087C292.344 85.023 292.558 85.5201 292.558 86.1001C292.558 86.4908 292.457 86.8488 292.256 87.1744C292.06 87.494 291.803 87.7514 291.483 87.9467C291.164 88.1361 290.812 88.2308 290.427 88.2308ZM297.873 88.2308C297.287 88.2308 296.784 88.0237 296.364 87.6094C295.95 87.1892 295.742 86.6861 295.742 86.1001C295.742 85.5201 295.95 85.023 296.364 84.6087C296.784 84.1944 297.287 83.9872 297.873 83.9872C298.441 83.9872 298.938 84.1944 299.365 84.6087C299.791 85.023 300.004 85.5201 300.004 86.1001C300.004 86.4908 299.903 86.8488 299.702 87.1744C299.507 87.494 299.249 87.7514 298.93 87.9467C298.61 88.1361 298.258 88.2308 297.873 88.2308ZM305.319 88.2308C304.733 88.2308 304.23 88.0237 303.81 87.6094C303.396 87.1892 303.189 86.6861 303.189 86.1001C303.189 85.5201 303.396 85.023 303.81 84.6087C304.23 84.1944 304.733 83.9872 305.319 83.9872C305.888 83.9872 306.385 84.1944 306.811 84.6087C307.237 85.023 307.45 85.5201 307.45 86.1001C307.45 86.4908 307.349 86.8488 307.148 87.1744C306.953 87.494 306.695 87.7514 306.376 87.9467C306.056 88.1361 305.704 88.2308 305.319 88.2308ZM312.766 88.2308C312.18 88.2308 311.677 88.0237 311.256 87.6094C310.842 87.1892 310.635 86.6861 310.635 86.1001C310.635 85.5201 310.842 85.023 311.256 84.6087C311.677 84.1944 312.18 83.9872 312.766 83.9872C313.334 83.9872 313.831 84.1944 314.257 84.6087C314.683 85.023 314.896 85.5201 314.896 86.1001C314.896 86.4908 314.796 86.8488 314.595 87.1744C314.399 87.494 314.142 87.7514 313.822 87.9467C313.503 88.1361 313.15 88.2308 312.766 88.2308ZM320.212 88.2308C319.626 88.2308 319.123 88.0237 318.703 87.6094C318.288 87.1892 318.081 86.6861 318.081 86.1001C318.081 85.5201 318.288 85.023 318.703 84.6087C319.123 84.1944 319.626 83.9872 320.212 83.9872C320.78 83.9872 321.277 84.1944 321.703 84.6087C322.13 85.023 322.343 85.5201 322.343 86.1001C322.343 86.4908 322.242 86.8488 322.041 87.1744C321.846 87.494 321.588 87.7514 321.268 87.9467C320.949 88.1361 320.597 88.2308 320.212 88.2308ZM327.658 88.2308C327.072 88.2308 326.569 88.0237 326.149 87.6094C325.735 87.1892 325.528 86.6861 325.528 86.1001C325.528 85.5201 325.735 85.023 326.149 84.6087C326.569 84.1944 327.072 83.9872 327.658 83.9872C328.226 83.9872 328.724 84.1944 329.15 84.6087C329.576 85.023 329.789 85.5201 329.789 86.1001C329.789 86.4908 329.688 86.8488 329.487 87.1744C329.292 87.494 329.034 87.7514 328.715 87.9467C328.395 88.1361 328.043 88.2308 327.658 88.2308ZM335.105 88.2308C334.519 88.2308 334.016 88.0237 333.595 87.6094C333.181 87.1892 332.974 86.6861 332.974 86.1001C332.974 85.5201 333.181 85.023 333.595 84.6087C334.016 84.1944 334.519 83.9872 335.105 83.9872C335.673 83.9872 336.17 84.1944 336.596 84.6087C337.022 85.023 337.235 85.5201 337.235 86.1001C337.235 86.4908 337.135 86.8488 336.933 87.1744C336.738 87.494 336.481 87.7514 336.161 87.9467C335.841 88.1361 335.489 88.2308 335.105 88.2308ZM342.551 88.2308C341.965 88.2308 341.462 88.0237 341.042 87.6094C340.627 87.1892 340.42 86.6861 340.42 86.1001C340.42 85.5201 340.627 85.023 341.042 84.6087C341.462 84.1944 341.965 83.9872 342.551 83.9872C343.119 83.9872 343.616 84.1944 344.042 84.6087C344.468 85.023 344.682 85.5201 344.682 86.1001C344.682 86.4908 344.581 86.8488 344.38 87.1744C344.184 87.494 343.927 87.7514 343.607 87.9467C343.288 88.1361 342.936 88.2308 342.551 88.2308ZM349.997 88.2308C349.411 88.2308 348.908 88.0237 348.488 87.6094C348.074 87.1892 347.866 86.6861 347.866 86.1001C347.866 85.5201 348.074 85.023 348.488 84.6087C348.908 84.1944 349.411 83.9872 349.997 83.9872C350.565 83.9872 351.063 84.1944 351.489 84.6087C351.915 85.023 352.128 85.5201 352.128 86.1001C352.128 86.4908 352.027 86.8488 351.826 87.1744C351.631 87.494 351.373 87.7514 351.054 87.9467C350.734 88.1361 350.382 88.2308 349.997 88.2308Z" fill="white"/>
<path d="M88.5803 140V121.818H92.4244V129.32H100.228V121.818H104.063V140H100.228V132.489H92.4244V140H88.5803ZM106.54 124.988V121.818H121.473V124.988H115.906V140H112.107V124.988H106.54ZM123.932 121.818H128.673L133.68 134.034H133.893L138.9 121.818H143.641V140H139.912V128.166H139.761L135.056 139.911H132.517L127.811 128.121H127.661V140H123.932V121.818ZM146.808 140V121.818H150.652V136.831H158.447V140H146.808ZM163.132 140.231C162.546 140.231 162.043 140.024 161.623 139.609C161.208 139.189 161.001 138.686 161.001 138.1C161.001 137.52 161.208 137.023 161.623 136.609C162.043 136.194 162.546 135.987 163.132 135.987C163.7 135.987 164.197 136.194 164.623 136.609C165.05 137.023 165.263 137.52 165.263 138.1C165.263 138.491 165.162 138.849 164.961 139.174C164.765 139.494 164.508 139.751 164.188 139.947C163.869 140.136 163.517 140.231 163.132 140.231ZM170.578 140.231C169.992 140.231 169.489 140.024 169.069 139.609C168.655 139.189 168.448 138.686 168.448 138.1C168.448 137.52 168.655 137.023 169.069 136.609C169.489 136.194 169.992 135.987 170.578 135.987C171.146 135.987 171.644 136.194 172.07 136.609C172.496 137.023 172.709 137.52 172.709 138.1C172.709 138.491 172.608 138.849 172.407 139.174C172.212 139.494 171.954 139.751 171.635 139.947C171.315 140.136 170.963 140.231 170.578 140.231ZM178.025 140.231C177.439 140.231 176.935 140.024 176.515 139.609C176.101 139.189 175.894 138.686 175.894 138.1C175.894 137.52 176.101 137.023 176.515 136.609C176.935 136.194 177.439 135.987 178.025 135.987C178.593 135.987 179.09 136.194 179.516 136.609C179.942 137.023 180.155 137.52 180.155 138.1C180.155 138.491 180.055 138.849 179.853 139.174C179.658 139.494 179.401 139.751 179.081 139.947C178.761 140.136 178.409 140.231 178.025 140.231ZM185.471 140.231C184.885 140.231 184.382 140.024 183.962 139.609C183.547 139.189 183.34 138.686 183.34 138.1C183.34 137.52 183.547 137.023 183.962 136.609C184.382 136.194 184.885 135.987 185.471 135.987C186.039 135.987 186.536 136.194 186.962 136.609C187.388 137.023 187.601 137.52 187.601 138.1C187.601 138.491 187.501 138.849 187.3 139.174C187.104 139.494 186.847 139.751 186.527 139.947C186.208 140.136 185.855 140.231 185.471 140.231ZM192.917 140.231C192.331 140.231 191.828 140.024 191.408 139.609C190.994 139.189 190.786 138.686 190.786 138.1C190.786 137.52 190.994 137.023 191.408 136.609C191.828 136.194 192.331 135.987 192.917 135.987C193.485 135.987 193.982 136.194 194.409 136.609C194.835 137.023 195.048 137.52 195.048 138.1C195.048 138.491 194.947 138.849 194.746 139.174C194.551 139.494 194.293 139.751 193.974 139.947C193.654 140.136 193.302 140.231 192.917 140.231ZM200.363 140.231C199.777 140.231 199.274 140.024 198.854 139.609C198.44 139.189 198.233 138.686 198.233 138.1C198.233 137.52 198.44 137.023 198.854 136.609C199.274 136.194 199.777 135.987 200.363 135.987C200.932 135.987 201.429 136.194 201.855 136.609C202.281 137.023 202.494 137.52 202.494 138.1C202.494 138.491 202.393 138.849 202.192 139.174C201.997 139.494 201.739 139.751 201.42 139.947C201.1 140.136 200.748 140.231 200.363 140.231ZM207.81 140.231C207.224 140.231 206.721 140.024 206.3 139.609C205.886 139.189 205.679 138.686 205.679 138.1C205.679 137.52 205.886 137.023 206.3 136.609C206.721 136.194 207.224 135.987 207.81 135.987C208.378 135.987 208.875 136.194 209.301 136.609C209.727 137.023 209.94 137.52 209.94 138.1C209.94 138.491 209.84 138.849 209.638 139.174C209.443 139.494 209.186 139.751 208.866 139.947C208.547 140.136 208.194 140.231 207.81 140.231ZM215.256 140.231C214.67 140.231 214.167 140.024 213.747 139.609C213.332 139.189 213.125 138.686 213.125 138.1C213.125 137.52 213.332 137.023 213.747 136.609C214.167 136.194 214.67 135.987 215.256 135.987C215.824 135.987 216.321 136.194 216.747 136.609C217.174 137.023 217.387 137.52 217.387 138.1C217.387 138.491 217.286 138.849 217.085 139.174C216.889 139.494 216.632 139.751 216.312 139.947C215.993 140.136 215.641 140.231 215.256 140.231ZM222.702 140.231C222.116 140.231 221.613 140.024 221.193 139.609C220.779 139.189 220.572 138.686 220.572 138.1C220.572 137.52 220.779 137.023 221.193 136.609C221.613 136.194 222.116 135.987 222.702 135.987C223.27 135.987 223.768 136.194 224.194 136.609C224.62 137.023 224.833 137.52 224.833 138.1C224.833 138.491 224.732 138.849 224.531 139.174C224.336 139.494 224.078 139.751 223.759 139.947C223.439 140.136 223.087 140.231 222.702 140.231ZM230.149 140.231C229.563 140.231 229.06 140.024 228.639 139.609C228.225 139.189 228.018 138.686 228.018 138.1C228.018 137.52 228.225 137.023 228.639 136.609C229.06 136.194 229.563 135.987 230.149 135.987C230.717 135.987 231.214 136.194 231.64 136.609C232.066 137.023 232.279 137.52 232.279 138.1C232.279 138.491 232.179 138.849 231.977 139.174C231.782 139.494 231.525 139.751 231.205 139.947C230.885 140.136 230.533 140.231 230.149 140.231ZM237.595 140.231C237.009 140.231 236.506 140.024 236.086 139.609C235.671 139.189 235.464 138.686 235.464 138.1C235.464 137.52 235.671 137.023 236.086 136.609C236.506 136.194 237.009 135.987 237.595 135.987C238.163 135.987 238.66 136.194 239.086 136.609C239.512 137.023 239.725 137.52 239.725 138.1C239.725 138.491 239.625 138.849 239.424 139.174C239.228 139.494 238.971 139.751 238.651 139.947C238.332 140.136 237.98 140.231 237.595 140.231ZM245.041 140.231C244.455 140.231 243.952 140.024 243.532 139.609C243.118 139.189 242.91 138.686 242.91 138.1C242.91 137.52 243.118 137.023 243.532 136.609C243.952 136.194 244.455 135.987 245.041 135.987C245.609 135.987 246.106 136.194 246.533 136.609C246.959 137.023 247.172 137.52 247.172 138.1C247.172 138.491 247.071 138.849 246.87 139.174C246.675 139.494 246.417 139.751 246.098 139.947C245.778 140.136 245.426 140.231 245.041 140.231ZM252.487 140.231C251.901 140.231 251.398 140.024 250.978 139.609C250.564 139.189 250.357 138.686 250.357 138.1C250.357 137.52 250.564 137.023 250.978 136.609C251.398 136.194 251.901 135.987 252.487 135.987C253.056 135.987 253.553 136.194 253.979 136.609C254.405 137.023 254.618 137.52 254.618 138.1C254.618 138.491 254.517 138.849 254.316 139.174C254.121 139.494 253.863 139.751 253.544 139.947C253.224 140.136 252.872 140.231 252.487 140.231ZM259.934 140.231C259.348 140.231 258.845 140.024 258.424 139.609C258.01 139.189 257.803 138.686 257.803 138.1C257.803 137.52 258.01 137.023 258.424 136.609C258.845 136.194 259.348 135.987 259.934 135.987C260.502 135.987 260.999 136.194 261.425 136.609C261.851 137.023 262.064 137.52 262.064 138.1C262.064 138.491 261.964 138.849 261.763 139.174C261.567 139.494 261.31 139.751 260.99 139.947C260.671 140.136 260.318 140.231 259.934 140.231ZM267.38 140.231C266.794 140.231 266.291 140.024 265.871 139.609C265.456 139.189 265.249 138.686 265.249 138.1C265.249 137.52 265.456 137.023 265.871 136.609C266.291 136.194 266.794 135.987 267.38 135.987C267.948 135.987 268.445 136.194 268.871 136.609C269.298 137.023 269.511 137.52 269.511 138.1C269.511 138.491 269.41 138.849 269.209 139.174C269.013 139.494 268.756 139.751 268.436 139.947C268.117 140.136 267.765 140.231 267.38 140.231ZM274.826 140.231C274.24 140.231 273.737 140.024 273.317 139.609C272.903 139.189 272.696 138.686 272.696 138.1C272.696 137.52 272.903 137.023 273.317 136.609C273.737 136.194 274.24 135.987 274.826 135.987C275.394 135.987 275.892 136.194 276.318 136.609C276.744 137.023 276.957 137.52 276.957 138.1C276.957 138.491 276.856 138.849 276.655 139.174C276.46 139.494 276.202 139.751 275.883 139.947C275.563 140.136 275.211 140.231 274.826 140.231ZM282.273 140.231C281.687 140.231 281.184 140.024 280.763 139.609C280.349 139.189 280.142 138.686 280.142 138.1C280.142 137.52 280.349 137.023 280.763 136.609C281.184 136.194 281.687 135.987 282.273 135.987C282.841 135.987 283.338 136.194 283.764 136.609C284.19 137.023 284.403 137.52 284.403 138.1C284.403 138.491 284.303 138.849 284.101 139.174C283.906 139.494 283.649 139.751 283.329 139.947C283.009 140.136 282.657 140.231 282.273 140.231ZM289.719 140.231C289.133 140.231 288.63 140.024 288.21 139.609C287.795 139.189 287.588 138.686 287.588 138.1C287.588 137.52 287.795 137.023 288.21 136.609C288.63 136.194 289.133 135.987 289.719 135.987C290.287 135.987 290.784 136.194 291.21 136.609C291.636 137.023 291.85 137.52 291.85 138.1C291.85 138.491 291.749 138.849 291.548 139.174C291.352 139.494 291.095 139.751 290.775 139.947C290.456 140.136 290.104 140.231 289.719 140.231ZM297.165 140.231C296.579 140.231 296.076 140.024 295.656 139.609C295.242 139.189 295.034 138.686 295.034 138.1C295.034 137.52 295.242 137.023 295.656 136.609C296.076 136.194 296.579 135.987 297.165 135.987C297.733 135.987 298.23 136.194 298.657 136.609C299.083 137.023 299.296 137.52 299.296 138.1C299.296 138.491 299.195 138.849 298.994 139.174C298.799 139.494 298.541 139.751 298.222 139.947C297.902 140.136 297.55 140.231 297.165 140.231ZM304.611 140.231C304.025 140.231 303.522 140.024 303.102 139.609C302.688 139.189 302.481 138.686 302.481 138.1C302.481 137.52 302.688 137.023 303.102 136.609C303.522 136.194 304.025 135.987 304.611 135.987C305.18 135.987 305.677 136.194 306.103 136.609C306.529 137.023 306.742 137.52 306.742 138.1C306.742 138.491 306.641 138.849 306.44 139.174C306.245 139.494 305.987 139.751 305.668 139.947C305.348 140.136 304.996 140.231 304.611 140.231ZM312.058 140.231C311.472 140.231 310.969 140.024 310.548 139.609C310.134 139.189 309.927 138.686 309.927 138.1C309.927 137.52 310.134 137.023 310.548 136.609C310.969 136.194 311.472 135.987 312.058 135.987C312.626 135.987 313.123 136.194 313.549 136.609C313.975 137.023 314.188 137.52 314.188 138.1C314.188 138.491 314.088 138.849 313.887 139.174C313.691 139.494 313.434 139.751 313.114 139.947C312.795 140.136 312.442 140.231 312.058 140.231ZM319.504 140.231C318.918 140.231 318.415 140.024 317.995 139.609C317.58 139.189 317.373 138.686 317.373 138.1C317.373 137.52 317.58 137.023 317.995 136.609C318.415 136.194 318.918 135.987 319.504 135.987C320.072 135.987 320.569 136.194 320.995 136.609C321.422 137.023 321.635 137.52 321.635 138.1C321.635 138.491 321.534 138.849 321.333 139.174C321.138 139.494 320.88 139.751 320.56 139.947C320.241 140.136 319.889 140.231 319.504 140.231ZM326.95 140.231C326.364 140.231 325.861 140.024 325.441 139.609C325.027 139.189 324.82 138.686 324.82 138.1C324.82 137.52 325.027 137.023 325.441 136.609C325.861 136.194 326.364 135.987 326.95 135.987C327.518 135.987 328.016 136.194 328.442 136.609C328.868 137.023 329.081 137.52 329.081 138.1C329.081 138.491 328.98 138.849 328.779 139.174C328.584 139.494 328.326 139.751 328.007 139.947C327.687 140.136 327.335 140.231 326.95 140.231ZM334.397 140.231C333.811 140.231 333.308 140.024 332.887 139.609C332.473 139.189 332.266 138.686 332.266 138.1C332.266 137.52 332.473 137.023 332.887 136.609C333.308 136.194 333.811 135.987 334.397 135.987C334.965 135.987 335.462 136.194 335.888 136.609C336.314 137.023 336.527 137.52 336.527 138.1C336.527 138.491 336.427 138.849 336.225 139.174C336.03 139.494 335.773 139.751 335.453 139.947C335.133 140.136 334.781 140.231 334.397 140.231ZM341.843 140.231C341.257 140.231 340.754 140.024 340.334 139.609C339.919 139.189 339.712 138.686 339.712 138.1C339.712 137.52 339.919 137.023 340.334 136.609C340.754 136.194 341.257 135.987 341.843 135.987C342.411 135.987 342.908 136.194 343.334 136.609C343.76 137.023 343.974 137.52 343.974 138.1C343.974 138.491 343.873 138.849 343.672 139.174C343.476 139.494 343.219 139.751 342.899 139.947C342.58 140.136 342.228 140.231 341.843 140.231ZM349.289 140.231C348.703 140.231 348.2 140.024 347.78 139.609C347.366 139.189 347.158 138.686 347.158 138.1C347.158 137.52 347.366 137.023 347.78 136.609C348.2 136.194 348.703 135.987 349.289 135.987C349.857 135.987 350.354 136.194 350.781 136.609C351.207 137.023 351.42 137.52 351.42 138.1C351.42 138.491 351.319 138.849 351.118 139.174C350.923 139.494 350.665 139.751 350.346 139.947C350.026 140.136 349.674 140.231 349.289 140.231Z" fill="white"/>
<path d="M104.623 175.184H100.734C100.663 174.681 100.518 174.234 100.299 173.843C100.08 173.446 99.7989 173.109 99.4556 172.831C99.1123 172.553 98.7158 172.34 98.266 172.192C97.8221 172.044 97.3397 171.97 96.8189 171.97C95.8778 171.97 95.0581 172.204 94.3597 172.671C93.6613 173.133 93.1198 173.808 92.7351 174.695C92.3504 175.577 92.158 176.648 92.158 177.909C92.158 179.205 92.3504 180.294 92.7351 181.176C93.1257 182.058 93.6702 182.724 94.3686 183.174C95.067 183.623 95.8749 183.848 96.7923 183.848C97.3072 183.848 97.7836 183.78 98.2216 183.644C98.6655 183.508 99.0591 183.31 99.4023 183.049C99.7456 182.783 100.03 182.46 100.255 182.082C100.485 181.703 100.645 181.271 100.734 180.786L104.623 180.803C104.522 181.638 104.27 182.443 103.868 183.218C103.471 183.987 102.936 184.677 102.261 185.287C101.592 185.89 100.793 186.37 99.864 186.725C98.9407 187.074 97.8961 187.249 96.7301 187.249C95.1084 187.249 93.6584 186.882 92.38 186.148C91.1075 185.414 90.1013 184.351 89.3615 182.961C88.6276 181.57 88.2607 179.886 88.2607 177.909C88.2607 175.926 88.6335 174.24 89.3793 172.849C90.125 171.458 91.1371 170.398 92.4155 169.67C93.6939 168.937 95.1321 168.57 96.7301 168.57C97.7836 168.57 98.7602 168.718 99.6598 169.013C100.565 169.309 101.367 169.741 102.066 170.31C102.764 170.872 103.332 171.561 103.77 172.378C104.214 173.195 104.498 174.13 104.623 175.184ZM117.242 174.047C117.171 173.331 116.867 172.775 116.328 172.378C115.789 171.982 115.058 171.783 114.135 171.783C113.508 171.783 112.978 171.872 112.546 172.05C112.114 172.221 111.782 172.461 111.552 172.769C111.327 173.077 111.214 173.426 111.214 173.816C111.202 174.142 111.271 174.426 111.419 174.669C111.572 174.911 111.782 175.121 112.049 175.299C112.315 175.471 112.623 175.622 112.972 175.752C113.321 175.876 113.694 175.983 114.091 176.071L115.724 176.462C116.517 176.64 117.245 176.876 117.908 177.172C118.571 177.468 119.145 177.832 119.631 178.264C120.116 178.696 120.492 179.205 120.758 179.791C121.03 180.377 121.169 181.049 121.175 181.806C121.169 182.919 120.885 183.884 120.323 184.701C119.767 185.511 118.962 186.142 117.908 186.592C116.861 187.036 115.597 187.257 114.117 187.257C112.65 187.257 111.371 187.033 110.282 186.583C109.199 186.133 108.353 185.467 107.743 184.585C107.139 183.697 106.823 182.6 106.793 181.292H110.513C110.554 181.901 110.729 182.41 111.037 182.819C111.35 183.221 111.768 183.526 112.289 183.733C112.815 183.934 113.41 184.035 114.073 184.035C114.724 184.035 115.289 183.94 115.769 183.751C116.254 183.561 116.63 183.298 116.896 182.961C117.162 182.623 117.296 182.236 117.296 181.798C117.296 181.389 117.174 181.046 116.932 180.768C116.695 180.49 116.346 180.253 115.884 180.058C115.428 179.862 114.869 179.685 114.206 179.525L112.226 179.028C110.693 178.655 109.483 178.072 108.595 177.279C107.708 176.486 107.267 175.417 107.273 174.074C107.267 172.973 107.56 172.011 108.151 171.189C108.749 170.366 109.569 169.724 110.611 169.262C111.652 168.8 112.836 168.57 114.162 168.57C115.511 168.57 116.689 168.8 117.695 169.262C118.707 169.724 119.494 170.366 120.057 171.189C120.619 172.011 120.909 172.964 120.927 174.047H117.242ZM133.624 174.047C133.553 173.331 133.248 172.775 132.71 172.378C132.171 171.982 131.44 171.783 130.517 171.783C129.89 171.783 129.36 171.872 128.928 172.05C128.496 172.221 128.164 172.461 127.934 172.769C127.709 173.077 127.596 173.426 127.596 173.816C127.584 174.142 127.652 174.426 127.8 174.669C127.954 174.911 128.164 175.121 128.431 175.299C128.697 175.471 129.005 175.622 129.354 175.752C129.703 175.876 130.076 175.983 130.473 176.071L132.106 176.462C132.899 176.64 133.627 176.876 134.29 177.172C134.953 177.468 135.527 177.832 136.012 178.264C136.498 178.696 136.873 179.205 137.14 179.791C137.412 180.377 137.551 181.049 137.557 181.806C137.551 182.919 137.267 183.884 136.705 184.701C136.148 185.511 135.344 186.142 134.29 186.592C133.242 187.036 131.979 187.257 130.499 187.257C129.031 187.257 127.753 187.033 126.664 186.583C125.581 186.133 124.735 185.467 124.125 184.585C123.521 183.697 123.205 182.6 123.175 181.292H126.895C126.936 181.901 127.111 182.41 127.419 182.819C127.732 183.221 128.15 183.526 128.67 183.733C129.197 183.934 129.792 184.035 130.455 184.035C131.106 184.035 131.671 183.94 132.15 183.751C132.636 183.561 133.012 183.298 133.278 182.961C133.544 182.623 133.677 182.236 133.677 181.798C133.677 181.389 133.556 181.046 133.313 180.768C133.077 180.49 132.728 180.253 132.266 180.058C131.81 179.862 131.251 179.685 130.588 179.525L128.608 179.028C127.075 178.655 125.865 178.072 124.977 177.279C124.089 176.486 123.648 175.417 123.654 174.074C123.648 172.973 123.941 172.011 124.533 171.189C125.131 170.366 125.951 169.724 126.992 169.262C128.034 168.8 129.218 168.57 130.544 168.57C131.893 168.57 133.071 168.8 134.077 169.262C135.089 169.724 135.876 170.366 136.438 171.189C137.001 172.011 137.291 172.964 137.309 174.047H133.624ZM142.282 187.231C141.696 187.231 141.193 187.024 140.773 186.609C140.359 186.189 140.152 185.686 140.152 185.1C140.152 184.52 140.359 184.023 140.773 183.609C141.193 183.194 141.696 182.987 142.282 182.987C142.85 182.987 143.348 183.194 143.774 183.609C144.2 184.023 144.413 184.52 144.413 185.1C144.413 185.491 144.312 185.849 144.111 186.174C143.916 186.494 143.658 186.751 143.339 186.947C143.019 187.136 142.667 187.231 142.282 187.231ZM149.729 187.231C149.143 187.231 148.64 187.024 148.219 186.609C147.805 186.189 147.598 185.686 147.598 185.1C147.598 184.52 147.805 184.023 148.219 183.609C148.64 183.194 149.143 182.987 149.729 182.987C150.297 182.987 150.794 183.194 151.22 183.609C151.646 184.023 151.859 184.52 151.859 185.1C151.859 185.491 151.759 185.849 151.557 186.174C151.362 186.494 151.105 186.751 150.785 186.947C150.465 187.136 150.113 187.231 149.729 187.231ZM157.175 187.231C156.589 187.231 156.086 187.024 155.666 186.609C155.251 186.189 155.044 185.686 155.044 185.1C155.044 184.52 155.251 184.023 155.666 183.609C156.086 183.194 156.589 182.987 157.175 182.987C157.743 182.987 158.24 183.194 158.666 183.609C159.093 184.023 159.306 184.52 159.306 185.1C159.306 185.491 159.205 185.849 159.004 186.174C158.808 186.494 158.551 186.751 158.231 186.947C157.912 187.136 157.56 187.231 157.175 187.231ZM164.621 187.231C164.035 187.231 163.532 187.024 163.112 186.609C162.698 186.189 162.491 185.686 162.491 185.1C162.491 184.52 162.698 184.023 163.112 183.609C163.532 183.194 164.035 182.987 164.621 182.987C165.189 182.987 165.687 183.194 166.113 183.609C166.539 184.023 166.752 184.52 166.752 185.1C166.752 185.491 166.651 185.849 166.45 186.174C166.255 186.494 165.997 186.751 165.678 186.947C165.358 187.136 165.006 187.231 164.621 187.231ZM172.067 187.231C171.482 187.231 170.978 187.024 170.558 186.609C170.144 186.189 169.937 185.686 169.937 185.1C169.937 184.52 170.144 184.023 170.558 183.609C170.978 183.194 171.482 182.987 172.067 182.987C172.636 182.987 173.133 183.194 173.559 183.609C173.985 184.023 174.198 184.52 174.198 185.1C174.198 185.491 174.098 185.849 173.896 186.174C173.701 186.494 173.444 186.751 173.124 186.947C172.804 187.136 172.452 187.231 172.067 187.231ZM179.514 187.231C178.928 187.231 178.425 187.024 178.005 186.609C177.59 186.189 177.383 185.686 177.383 185.1C177.383 184.52 177.59 184.023 178.005 183.609C178.425 183.194 178.928 182.987 179.514 182.987C180.082 182.987 180.579 183.194 181.005 183.609C181.431 184.023 181.644 184.52 181.644 185.1C181.644 185.491 181.544 185.849 181.343 186.174C181.147 186.494 180.89 186.751 180.57 186.947C180.251 187.136 179.898 187.231 179.514 187.231ZM186.96 187.231C186.374 187.231 185.871 187.024 185.451 186.609C185.037 186.189 184.829 185.686 184.829 185.1C184.829 184.52 185.037 184.023 185.451 183.609C185.871 183.194 186.374 182.987 186.96 182.987C187.528 182.987 188.025 183.194 188.452 183.609C188.878 184.023 189.091 184.52 189.091 185.1C189.091 185.491 188.99 185.849 188.789 186.174C188.594 186.494 188.336 186.751 188.017 186.947C187.697 187.136 187.345 187.231 186.96 187.231ZM194.406 187.231C193.82 187.231 193.317 187.024 192.897 186.609C192.483 186.189 192.276 185.686 192.276 185.1C192.276 184.52 192.483 184.023 192.897 183.609C193.317 183.194 193.82 182.987 194.406 182.987C194.975 182.987 195.472 183.194 195.898 183.609C196.324 184.023 196.537 184.52 196.537 185.1C196.537 185.491 196.436 185.849 196.235 186.174C196.04 186.494 195.782 186.751 195.463 186.947C195.143 187.136 194.791 187.231 194.406 187.231ZM201.853 187.231C201.267 187.231 200.764 187.024 200.343 186.609C199.929 186.189 199.722 185.686 199.722 185.1C199.722 184.52 199.929 184.023 200.343 183.609C200.764 183.194 201.267 182.987 201.853 182.987C202.421 182.987 202.918 183.194 203.344 183.609C203.77 184.023 203.983 184.52 203.983 185.1C203.983 185.491 203.883 185.849 203.681 186.174C203.486 186.494 203.229 186.751 202.909 186.947C202.589 187.136 202.237 187.231 201.853 187.231ZM209.299 187.231C208.713 187.231 208.21 187.024 207.79 186.609C207.375 186.189 207.168 185.686 207.168 185.1C207.168 184.52 207.375 184.023 207.79 183.609C208.21 183.194 208.713 182.987 209.299 182.987C209.867 182.987 210.364 183.194 210.79 183.609C211.217 184.023 211.43 184.52 211.43 185.1C211.43 185.491 211.329 185.849 211.128 186.174C210.932 186.494 210.675 186.751 210.355 186.947C210.036 187.136 209.684 187.231 209.299 187.231ZM216.745 187.231C216.159 187.231 215.656 187.024 215.236 186.609C214.822 186.189 214.615 185.686 214.615 185.1C214.615 184.52 214.822 184.023 215.236 183.609C215.656 183.194 216.159 182.987 216.745 182.987C217.313 182.987 217.811 183.194 218.237 183.609C218.663 184.023 218.876 184.52 218.876 185.1C218.876 185.491 218.775 185.849 218.574 186.174C218.379 186.494 218.121 186.751 217.802 186.947C217.482 187.136 217.13 187.231 216.745 187.231ZM224.191 187.231C223.606 187.231 223.102 187.024 222.682 186.609C222.268 186.189 222.061 185.686 222.061 185.1C222.061 184.52 222.268 184.023 222.682 183.609C223.102 183.194 223.606 182.987 224.191 182.987C224.76 182.987 225.257 183.194 225.683 183.609C226.109 184.023 226.322 184.52 226.322 185.1C226.322 185.491 226.222 185.849 226.02 186.174C225.825 186.494 225.568 186.751 225.248 186.947C224.928 187.136 224.576 187.231 224.191 187.231ZM231.638 187.231C231.052 187.231 230.549 187.024 230.129 186.609C229.714 186.189 229.507 185.686 229.507 185.1C229.507 184.52 229.714 184.023 230.129 183.609C230.549 183.194 231.052 182.987 231.638 182.987C232.206 182.987 232.703 183.194 233.129 183.609C233.555 184.023 233.768 184.52 233.768 185.1C233.768 185.491 233.668 185.849 233.467 186.174C233.271 186.494 233.014 186.751 232.694 186.947C232.375 187.136 232.022 187.231 231.638 187.231ZM239.084 187.231C238.498 187.231 237.995 187.024 237.575 186.609C237.161 186.189 236.953 185.686 236.953 185.1C236.953 184.52 237.161 184.023 237.575 183.609C237.995 183.194 238.498 182.987 239.084 182.987C239.652 182.987 240.149 183.194 240.576 183.609C241.002 184.023 241.215 184.52 241.215 185.1C241.215 185.491 241.114 185.849 240.913 186.174C240.718 186.494 240.46 186.751 240.141 186.947C239.821 187.136 239.469 187.231 239.084 187.231ZM246.53 187.231C245.944 187.231 245.441 187.024 245.021 186.609C244.607 186.189 244.4 185.686 244.4 185.1C244.4 184.52 244.607 184.023 245.021 183.609C245.441 183.194 245.944 182.987 246.53 182.987C247.099 182.987 247.596 183.194 248.022 183.609C248.448 184.023 248.661 184.52 248.661 185.1C248.661 185.491 248.56 185.849 248.359 186.174C248.164 186.494 247.906 186.751 247.587 186.947C247.267 187.136 246.915 187.231 246.53 187.231ZM253.977 187.231C253.391 187.231 252.888 187.024 252.467 186.609C252.053 186.189 251.846 185.686 251.846 185.1C251.846 184.52 252.053 184.023 252.467 183.609C252.888 183.194 253.391 182.987 253.977 182.987C254.545 182.987 255.042 183.194 255.468 183.609C255.894 184.023 256.107 184.52 256.107 185.1C256.107 185.491 256.007 185.849 255.805 186.174C255.61 186.494 255.353 186.751 255.033 186.947C254.714 187.136 254.361 187.231 253.977 187.231ZM261.423 187.231C260.837 187.231 260.334 187.024 259.914 186.609C259.499 186.189 259.292 185.686 259.292 185.1C259.292 184.52 259.499 184.023 259.914 183.609C260.334 183.194 260.837 182.987 261.423 182.987C261.991 182.987 262.488 183.194 262.914 183.609C263.341 184.023 263.554 184.52 263.554 185.1C263.554 185.491 263.453 185.849 263.252 186.174C263.056 186.494 262.799 186.751 262.479 186.947C262.16 187.136 261.808 187.231 261.423 187.231ZM268.869 187.231C268.283 187.231 267.78 187.024 267.36 186.609C266.946 186.189 266.739 185.686 266.739 185.1C266.739 184.52 266.946 184.023 267.36 183.609C267.78 183.194 268.283 182.987 268.869 182.987C269.437 182.987 269.935 183.194 270.361 183.609C270.787 184.023 271 184.52 271 185.1C271 185.491 270.899 185.849 270.698 186.174C270.503 186.494 270.245 186.751 269.926 186.947C269.606 187.136 269.254 187.231 268.869 187.231ZM276.316 187.231C275.73 187.231 275.227 187.024 274.806 186.609C274.392 186.189 274.185 185.686 274.185 185.1C274.185 184.52 274.392 184.023 274.806 183.609C275.227 183.194 275.73 182.987 276.316 182.987C276.884 182.987 277.381 183.194 277.807 183.609C278.233 184.023 278.446 184.52 278.446 185.1C278.446 185.491 278.346 185.849 278.144 186.174C277.949 186.494 277.692 186.751 277.372 186.947C277.052 187.136 276.7 187.231 276.316 187.231ZM283.762 187.231C283.176 187.231 282.673 187.024 282.253 186.609C281.838 186.189 281.631 185.686 281.631 185.1C281.631 184.52 281.838 184.023 282.253 183.609C282.673 183.194 283.176 182.987 283.762 182.987C284.33 182.987 284.827 183.194 285.253 183.609C285.679 184.023 285.892 184.52 285.892 185.1C285.892 185.491 285.792 185.849 285.591 186.174C285.395 186.494 285.138 186.751 284.818 186.947C284.499 187.136 284.147 187.231 283.762 187.231ZM291.208 187.231C290.622 187.231 290.119 187.024 289.699 186.609C289.285 186.189 289.077 185.686 289.077 185.1C289.077 184.52 289.285 184.023 289.699 183.609C290.119 183.194 290.622 182.987 291.208 182.987C291.776 182.987 292.273 183.194 292.7 183.609C293.126 184.023 293.339 184.52 293.339 185.1C293.339 185.491 293.238 185.849 293.037 186.174C292.842 186.494 292.584 186.751 292.265 186.947C291.945 187.136 291.593 187.231 291.208 187.231ZM298.654 187.231C298.068 187.231 297.565 187.024 297.145 186.609C296.731 186.189 296.524 185.686 296.524 185.1C296.524 184.52 296.731 184.023 297.145 183.609C297.565 183.194 298.068 182.987 298.654 182.987C299.223 182.987 299.72 183.194 300.146 183.609C300.572 184.023 300.785 184.52 300.785 185.1C300.785 185.491 300.684 185.849 300.483 186.174C300.288 186.494 300.03 186.751 299.711 186.947C299.391 187.136 299.039 187.231 298.654 187.231ZM306.101 187.231C305.515 187.231 305.012 187.024 304.591 186.609C304.177 186.189 303.97 185.686 303.97 185.1C303.97 184.52 304.177 184.023 304.591 183.609C305.012 183.194 305.515 182.987 306.101 182.987C306.669 182.987 307.166 183.194 307.592 183.609C308.018 184.023 308.231 184.52 308.231 185.1C308.231 185.491 308.131 185.849 307.93 186.174C307.734 186.494 307.477 186.751 307.157 186.947C306.838 187.136 306.485 187.231 306.101 187.231ZM313.547 187.231C312.961 187.231 312.458 187.024 312.038 186.609C311.623 186.189 311.416 185.686 311.416 185.1C311.416 184.52 311.623 184.023 312.038 183.609C312.458 183.194 312.961 182.987 313.547 182.987C314.115 182.987 314.612 183.194 315.038 183.609C315.465 184.023 315.678 184.52 315.678 185.1C315.678 185.491 315.577 185.849 315.376 186.174C315.18 186.494 314.923 186.751 314.603 186.947C314.284 187.136 313.932 187.231 313.547 187.231ZM320.993 187.231C320.407 187.231 319.904 187.024 319.484 186.609C319.07 186.189 318.863 185.686 318.863 185.1C318.863 184.52 319.07 184.023 319.484 183.609C319.904 183.194 320.407 182.987 320.993 182.987C321.561 182.987 322.059 183.194 322.485 183.609C322.911 184.023 323.124 184.52 323.124 185.1C323.124 185.491 323.023 185.849 322.822 186.174C322.627 186.494 322.369 186.751 322.05 186.947C321.73 187.136 321.378 187.231 320.993 187.231ZM328.44 187.231C327.854 187.231 327.351 187.024 326.93 186.609C326.516 186.189 326.309 185.686 326.309 185.1C326.309 184.52 326.516 184.023 326.93 183.609C327.351 183.194 327.854 182.987 328.44 182.987C329.008 182.987 329.505 183.194 329.931 183.609C330.357 184.023 330.57 184.52 330.57 185.1C330.57 185.491 330.47 185.849 330.268 186.174C330.073 186.494 329.816 186.751 329.496 186.947C329.176 187.136 328.824 187.231 328.44 187.231ZM335.886 187.231C335.3 187.231 334.797 187.024 334.377 186.609C333.962 186.189 333.755 185.686 333.755 185.1C333.755 184.52 333.962 184.023 334.377 183.609C334.797 183.194 335.3 182.987 335.886 182.987C336.454 182.987 336.951 183.194 337.377 183.609C337.803 184.023 338.017 184.52 338.017 185.1C338.017 185.491 337.916 185.849 337.715 186.174C337.519 186.494 337.262 186.751 336.942 186.947C336.623 187.136 336.271 187.231 335.886 187.231ZM343.332 187.231C342.746 187.231 342.243 187.024 341.823 186.609C341.409 186.189 341.201 185.686 341.201 185.1C341.201 184.52 341.409 184.023 341.823 183.609C342.243 183.194 342.746 182.987 343.332 182.987C343.9 182.987 344.397 183.194 344.824 183.609C345.25 184.023 345.463 184.52 345.463 185.1C345.463 185.491 345.362 185.849 345.161 186.174C344.966 186.494 344.708 186.751 344.389 186.947C344.069 187.136 343.717 187.231 343.332 187.231ZM350.778 187.231C350.192 187.231 349.689 187.024 349.269 186.609C348.855 186.189 348.648 185.686 348.648 185.1C348.648 184.52 348.855 184.023 349.269 183.609C349.689 183.194 350.192 182.987 350.778 182.987C351.347 182.987 351.844 183.194 352.27 183.609C352.696 184.023 352.909 184.52 352.909 185.1C352.909 185.491 352.808 185.849 352.607 186.174C352.412 186.494 352.154 186.751 351.835 186.947C351.515 187.136 351.163 187.231 350.778 187.231Z" fill="white"/>
<path d="M95.8601 220.818H99.6598V233.496C99.6598 234.668 99.3964 235.686 98.8697 236.55C98.3488 237.414 97.6238 238.08 96.6946 238.547C95.7654 239.015 94.6853 239.249 93.4542 239.249C92.3593 239.249 91.3649 239.056 90.4712 238.672C89.5835 238.281 88.8791 237.689 88.3583 236.896C87.8375 236.097 87.58 235.094 87.5859 233.886H91.4123C91.4241 234.366 91.5218 234.777 91.7053 235.12C91.8946 235.458 92.1521 235.718 92.4776 235.902C92.8091 236.079 93.1997 236.168 93.6495 236.168C94.123 236.168 94.5225 236.067 94.848 235.866C95.1795 235.659 95.431 235.357 95.6026 234.961C95.7743 234.564 95.8601 234.076 95.8601 233.496V220.818ZM105.972 239H101.853L108.129 220.818H113.083L119.351 239H115.232L110.677 224.973H110.535L105.972 239ZM105.714 231.853H115.445V234.854H105.714V231.853ZM122.554 220.818L126.948 234.632H127.117L131.52 220.818H135.782L129.514 239H124.56L118.283 220.818H122.554ZM138.687 239H134.567L140.844 220.818H145.798L152.066 239H147.946L143.392 224.973H143.25L138.687 239ZM138.429 231.853H148.159V234.854H138.429V231.853ZM163.702 226.047C163.631 225.331 163.326 224.775 162.788 224.378C162.249 223.982 161.518 223.783 160.595 223.783C159.968 223.783 159.438 223.872 159.006 224.05C158.574 224.221 158.242 224.461 158.012 224.769C157.787 225.077 157.674 225.426 157.674 225.816C157.662 226.142 157.73 226.426 157.878 226.669C158.032 226.911 158.242 227.121 158.509 227.299C158.775 227.471 159.083 227.622 159.432 227.752C159.781 227.876 160.154 227.983 160.551 228.071L162.184 228.462C162.977 228.64 163.705 228.876 164.368 229.172C165.031 229.468 165.605 229.832 166.09 230.264C166.576 230.696 166.952 231.205 167.218 231.791C167.49 232.377 167.629 233.049 167.635 233.806C167.629 234.919 167.345 235.884 166.783 236.701C166.227 237.511 165.422 238.142 164.368 238.592C163.321 239.036 162.057 239.257 160.577 239.257C159.11 239.257 157.831 239.033 156.742 238.583C155.659 238.133 154.813 237.467 154.203 236.585C153.599 235.697 153.283 234.6 153.253 233.292H156.973C157.014 233.901 157.189 234.41 157.497 234.819C157.81 235.221 158.228 235.526 158.748 235.733C159.275 235.934 159.87 236.035 160.533 236.035C161.184 236.035 161.749 235.94 162.229 235.751C162.714 235.561 163.09 235.298 163.356 234.961C163.622 234.623 163.756 234.236 163.756 233.798C163.756 233.389 163.634 233.046 163.392 232.768C163.155 232.49 162.806 232.253 162.344 232.058C161.888 231.862 161.329 231.685 160.666 231.525L158.686 231.028C157.153 230.655 155.943 230.072 155.055 229.279C154.168 228.486 153.727 227.417 153.733 226.074C153.727 224.973 154.02 224.011 154.611 223.189C155.209 222.366 156.029 221.724 157.071 221.262C158.112 220.8 159.296 220.57 160.622 220.57C161.971 220.57 163.149 220.8 164.155 221.262C165.167 221.724 165.954 222.366 166.517 223.189C167.079 224.011 167.369 224.964 167.387 226.047H163.702ZM186.263 227.184H182.375C182.304 226.681 182.159 226.234 181.94 225.843C181.721 225.446 181.44 225.109 181.096 224.831C180.753 224.553 180.356 224.34 179.907 224.192C179.463 224.044 178.98 223.97 178.46 223.97C177.518 223.97 176.699 224.204 176 224.671C175.302 225.133 174.76 225.808 174.376 226.695C173.991 227.577 173.799 228.648 173.799 229.909C173.799 231.205 173.991 232.294 174.376 233.176C174.766 234.058 175.311 234.724 176.009 235.174C176.708 235.623 177.516 235.848 178.433 235.848C178.948 235.848 179.424 235.78 179.862 235.644C180.306 235.508 180.7 235.31 181.043 235.049C181.386 234.783 181.67 234.46 181.895 234.082C182.126 233.703 182.286 233.271 182.375 232.786L186.263 232.803C186.163 233.638 185.911 234.443 185.509 235.218C185.112 235.987 184.576 236.677 183.902 237.287C183.233 237.89 182.434 238.37 181.505 238.725C180.581 239.074 179.537 239.249 178.371 239.249C176.749 239.249 175.299 238.882 174.021 238.148C172.748 237.414 171.742 236.351 171.002 234.961C170.268 233.57 169.901 231.886 169.901 229.909C169.901 227.926 170.274 226.24 171.02 224.849C171.766 223.458 172.778 222.398 174.056 221.67C175.335 220.937 176.773 220.57 178.371 220.57C179.424 220.57 180.401 220.718 181.3 221.013C182.206 221.309 183.008 221.741 183.706 222.31C184.405 222.872 184.973 223.561 185.411 224.378C185.855 225.195 186.139 226.13 186.263 227.184ZM189.02 239V220.818H196.193C197.566 220.818 198.738 221.064 199.709 221.555C200.685 222.04 201.428 222.73 201.937 223.624C202.452 224.511 202.709 225.556 202.709 226.757C202.709 227.965 202.449 229.004 201.928 229.874C201.407 230.738 200.653 231.401 199.664 231.862C198.682 232.324 197.492 232.555 196.095 232.555H191.292V229.465H195.474C196.208 229.465 196.817 229.365 197.303 229.163C197.788 228.962 198.149 228.66 198.386 228.258C198.628 227.855 198.75 227.355 198.75 226.757C198.75 226.154 198.628 225.645 198.386 225.23C198.149 224.816 197.785 224.502 197.294 224.289C196.809 224.07 196.196 223.961 195.456 223.961H192.864V239H189.02ZM198.839 230.726L203.357 239H199.114L194.693 230.726H198.839ZM209.27 220.818V239H205.426V220.818H209.27ZM212.433 239V220.818H219.606C220.985 220.818 222.16 221.082 223.131 221.608C224.101 222.129 224.841 222.854 225.35 223.783C225.865 224.707 226.122 225.772 226.122 226.979C226.122 228.187 225.862 229.252 225.341 230.175C224.82 231.099 224.066 231.818 223.077 232.333C222.095 232.848 220.905 233.105 219.508 233.105H214.936V230.025H218.887C219.627 230.025 220.236 229.897 220.716 229.643C221.201 229.382 221.562 229.024 221.799 228.569C222.042 228.107 222.163 227.577 222.163 226.979C222.163 226.376 222.042 225.849 221.799 225.399C221.562 224.943 221.201 224.591 220.716 224.343C220.23 224.088 219.615 223.961 218.869 223.961H216.277V239H212.433ZM227.927 223.988V220.818H242.859V223.988H237.293V239H233.493V223.988H227.927ZM246.604 239.231C246.018 239.231 245.515 239.024 245.094 238.609C244.68 238.189 244.473 237.686 244.473 237.1C244.473 236.52 244.68 236.023 245.094 235.609C245.515 235.194 246.018 234.987 246.604 234.987C247.172 234.987 247.669 235.194 248.095 235.609C248.521 236.023 248.734 236.52 248.734 237.1C248.734 237.491 248.634 237.849 248.432 238.174C248.237 238.494 247.98 238.751 247.66 238.947C247.34 239.136 246.988 239.231 246.604 239.231ZM254.05 239.231C253.464 239.231 252.961 239.024 252.541 238.609C252.126 238.189 251.919 237.686 251.919 237.1C251.919 236.52 252.126 236.023 252.541 235.609C252.961 235.194 253.464 234.987 254.05 234.987C254.618 234.987 255.115 235.194 255.541 235.609C255.968 236.023 256.181 236.52 256.181 237.1C256.181 237.491 256.08 237.849 255.879 238.174C255.683 238.494 255.426 238.751 255.106 238.947C254.787 239.136 254.435 239.231 254.05 239.231ZM261.496 239.231C260.91 239.231 260.407 239.024 259.987 238.609C259.573 238.189 259.366 237.686 259.366 237.1C259.366 236.52 259.573 236.023 259.987 235.609C260.407 235.194 260.91 234.987 261.496 234.987C262.064 234.987 262.562 235.194 262.988 235.609C263.414 236.023 263.627 236.52 263.627 237.1C263.627 237.491 263.526 237.849 263.325 238.174C263.13 238.494 262.872 238.751 262.553 238.947C262.233 239.136 261.881 239.231 261.496 239.231ZM268.942 239.231C268.357 239.231 267.853 239.024 267.433 238.609C267.019 238.189 266.812 237.686 266.812 237.1C266.812 236.52 267.019 236.023 267.433 235.609C267.853 235.194 268.357 234.987 268.942 234.987C269.511 234.987 270.008 235.194 270.434 235.609C270.86 236.023 271.073 236.52 271.073 237.1C271.073 237.491 270.973 237.849 270.771 238.174C270.576 238.494 270.319 238.751 269.999 238.947C269.679 239.136 269.327 239.231 268.942 239.231ZM276.389 239.231C275.803 239.231 275.3 239.024 274.88 238.609C274.465 238.189 274.258 237.686 274.258 237.1C274.258 236.52 274.465 236.023 274.88 235.609C275.3 235.194 275.803 234.987 276.389 234.987C276.957 234.987 277.454 235.194 277.88 235.609C278.306 236.023 278.519 236.52 278.519 237.1C278.519 237.491 278.419 237.849 278.218 238.174C278.022 238.494 277.765 238.751 277.445 238.947C277.126 239.136 276.773 239.231 276.389 239.231ZM283.835 239.231C283.249 239.231 282.746 239.024 282.326 238.609C281.912 238.189 281.704 237.686 281.704 237.1C281.704 236.52 281.912 236.023 282.326 235.609C282.746 235.194 283.249 234.987 283.835 234.987C284.403 234.987 284.9 235.194 285.327 235.609C285.753 236.023 285.966 236.52 285.966 237.1C285.966 237.491 285.865 237.849 285.664 238.174C285.469 238.494 285.211 238.751 284.892 238.947C284.572 239.136 284.22 239.231 283.835 239.231ZM291.281 239.231C290.695 239.231 290.192 239.024 289.772 238.609C289.358 238.189 289.151 237.686 289.151 237.1C289.151 236.52 289.358 236.023 289.772 235.609C290.192 235.194 290.695 234.987 291.281 234.987C291.85 234.987 292.347 235.194 292.773 235.609C293.199 236.023 293.412 236.52 293.412 237.1C293.412 237.491 293.311 237.849 293.11 238.174C292.915 238.494 292.657 238.751 292.338 238.947C292.018 239.136 291.666 239.231 291.281 239.231ZM298.728 239.231C298.142 239.231 297.639 239.024 297.218 238.609C296.804 238.189 296.597 237.686 296.597 237.1C296.597 236.52 296.804 236.023 297.218 235.609C297.639 235.194 298.142 234.987 298.728 234.987C299.296 234.987 299.793 235.194 300.219 235.609C300.645 236.023 300.858 236.52 300.858 237.1C300.858 237.491 300.758 237.849 300.556 238.174C300.361 238.494 300.104 238.751 299.784 238.947C299.464 239.136 299.112 239.231 298.728 239.231ZM306.174 239.231C305.588 239.231 305.085 239.024 304.665 238.609C304.25 238.189 304.043 237.686 304.043 237.1C304.043 236.52 304.25 236.023 304.665 235.609C305.085 235.194 305.588 234.987 306.174 234.987C306.742 234.987 307.239 235.194 307.665 235.609C308.092 236.023 308.305 236.52 308.305 237.1C308.305 237.491 308.204 237.849 308.003 238.174C307.807 238.494 307.55 238.751 307.23 238.947C306.911 239.136 306.559 239.231 306.174 239.231ZM313.62 239.231C313.034 239.231 312.531 239.024 312.111 238.609C311.697 238.189 311.49 237.686 311.49 237.1C311.49 236.52 311.697 236.023 312.111 235.609C312.531 235.194 313.034 234.987 313.62 234.987C314.188 234.987 314.686 235.194 315.112 235.609C315.538 236.023 315.751 236.52 315.751 237.1C315.751 237.491 315.65 237.849 315.449 238.174C315.254 238.494 314.996 238.751 314.677 238.947C314.357 239.136 314.005 239.231 313.62 239.231ZM321.066 239.231C320.481 239.231 319.977 239.024 319.557 238.609C319.143 238.189 318.936 237.686 318.936 237.1C318.936 236.52 319.143 236.023 319.557 235.609C319.977 235.194 320.481 234.987 321.066 234.987C321.635 234.987 322.132 235.194 322.558 235.609C322.984 236.023 323.197 236.52 323.197 237.1C323.197 237.491 323.097 237.849 322.895 238.174C322.7 238.494 322.443 238.751 322.123 238.947C321.803 239.136 321.451 239.231 321.066 239.231ZM328.513 239.231C327.927 239.231 327.424 239.024 327.004 238.609C326.589 238.189 326.382 237.686 326.382 237.1C326.382 236.52 326.589 236.023 327.004 235.609C327.424 235.194 327.927 234.987 328.513 234.987C329.081 234.987 329.578 235.194 330.004 235.609C330.43 236.023 330.643 236.52 330.643 237.1C330.643 237.491 330.543 237.849 330.342 238.174C330.146 238.494 329.889 238.751 329.569 238.947C329.25 239.136 328.897 239.231 328.513 239.231ZM335.959 239.231C335.373 239.231 334.87 239.024 334.45 238.609C334.036 238.189 333.828 237.686 333.828 237.1C333.828 236.52 334.036 236.023 334.45 235.609C334.87 235.194 335.373 234.987 335.959 234.987C336.527 234.987 337.024 235.194 337.451 235.609C337.877 236.023 338.09 236.52 338.09 237.1C338.09 237.491 337.989 237.849 337.788 238.174C337.593 238.494 337.335 238.751 337.016 238.947C336.696 239.136 336.344 239.231 335.959 239.231ZM343.405 239.231C342.819 239.231 342.316 239.024 341.896 238.609C341.482 238.189 341.275 237.686 341.275 237.1C341.275 236.52 341.482 236.023 341.896 235.609C342.316 235.194 342.819 234.987 343.405 234.987C343.974 234.987 344.471 235.194 344.897 235.609C345.323 236.023 345.536 236.52 345.536 237.1C345.536 237.491 345.435 237.849 345.234 238.174C345.039 238.494 344.781 238.751 344.462 238.947C344.142 239.136 343.79 239.231 343.405 239.231ZM350.852 239.231C350.266 239.231 349.763 239.024 349.342 238.609C348.928 238.189 348.721 237.686 348.721 237.1C348.721 236.52 348.928 236.023 349.342 235.609C349.763 235.194 350.266 234.987 350.852 234.987C351.42 234.987 351.917 235.194 352.343 235.609C352.769 236.023 352.982 236.52 352.982 237.1C352.982 237.491 352.882 237.849 352.68 238.174C352.485 238.494 352.228 238.751 351.908 238.947C351.589 239.136 351.236 239.231 350.852 239.231Z" fill="white"/>
<g filter="url(#filter0_d_25_79)">
<path d="M377 55L381.715 69.5106H396.972L384.629 78.4787L389.343 92.9894L377 84.0213L364.657 92.9894L369.371 78.4787L357.028 69.5106H372.285L377 55Z" fill="#FFF500"/>
</g>
<g filter="url(#filter1_d_25_79)">
<path d="M419 55L423.715 69.5106H438.972L426.629 78.4787L431.343 92.9894L419 84.0213L406.657 92.9894L411.371 78.4787L399.028 69.5106H414.285L419 55Z" fill="#FFF500"/>
</g>
<g filter="url(#filter2_d_25_79)">
<path d="M461 55L465.715 69.5106H480.972L468.629 78.4787L473.343 92.9894L461 84.0213L448.657 92.9894L453.371 78.4787L441.028 69.5106H456.285L461 55Z" fill="#FFF500"/>
</g>
<g filter="url(#filter3_d_25_79)">
<path d="M499 55L503.715 69.5106H518.972L506.629 78.4787L511.343 92.9894L499 84.0213L486.657 92.9894L491.371 78.4787L479.028 69.5106H494.285L499 55Z" fill="white"/>
</g>
<g filter="url(#filter4_d_25_79)">
<path d="M537 55L541.715 69.5106H556.972L544.629 78.4787L549.343 92.9894L537 84.0213L524.657 92.9894L529.371 78.4787L517.028 69.5106H532.285L537 55Z" fill="white"/>
</g>
<g filter="url(#filter5_d_25_79)">
<path d="M377 107L381.715 121.511H396.972L384.629 130.479L389.343 144.989L377 136.021L364.657 144.989L369.371 130.479L357.028 121.511H372.285L377 107Z" fill="#FFF500"/>
<path d="M419 107L423.715 121.511H438.972L426.629 130.479L431.343 144.989L419 136.021L406.657 144.989L411.371 130.479L399.028 121.511H414.285L419 107Z" fill="#FFF500"/>
<path d="M461 107L465.715 121.511H480.972L468.629 130.479L473.343 144.989L461 136.021L448.657 144.989L453.371 130.479L441.028 121.511H456.285L461 107Z" fill="white"/>
<path d="M499 107L503.715 121.511H518.972L506.629 130.479L511.343 144.989L499 136.021L486.657 144.989L491.371 130.479L479.028 121.511H494.285L499 107Z" fill="white"/>
<path d="M537 107L541.715 121.511H556.972L544.629 130.479L549.343 144.989L537 136.021L524.657 144.989L529.371 130.479L517.028 121.511H532.285L537 107Z" fill="white"/>
</g>
<g filter="url(#filter6_d_25_79)">
<path d="M377 159L381.715 173.511H396.972L384.629 182.479L389.343 196.989L377 188.021L364.657 196.989L369.371 182.479L357.028 173.511H372.285L377 159Z" fill="#FFF500"/>
</g>
<g filter="url(#filter7_d_25_79)">
<path d="M419 159L423.715 173.511H438.972L426.629 182.479L431.343 196.989L419 188.021L406.657 196.989L411.371 182.479L399.028 173.511H414.285L419 159Z" fill="#FFF500"/>
</g>
<g filter="url(#filter8_d_25_79)">
<path d="M461 159L465.715 173.511H480.972L468.629 182.479L473.343 196.989L461 188.021L448.657 196.989L453.371 182.479L441.028 173.511H456.285L461 159Z" fill="white"/>
</g>
<g filter="url(#filter9_d_25_79)">
<path d="M499 159L503.715 173.511H518.972L506.629 182.479L511.343 196.989L499 188.021L486.657 196.989L491.371 182.479L479.028 173.511H494.285L499 159Z" fill="white"/>
</g>
<g filter="url(#filter10_d_25_79)">
<path d="M537 159L541.715 173.511H556.972L544.629 182.479L549.343 196.989L537 188.021L524.657 196.989L529.371 182.479L517.028 173.511H532.285L537 159Z" fill="white"/>
</g>
<g filter="url(#filter11_d_25_79)">
<path d="M377 211L381.715 225.511H396.972L384.629 234.479L389.343 248.989L377 240.021L364.657 248.989L369.371 234.479L357.028 225.511H372.285L377 211Z" fill="#FFF500"/>
<path d="M419 211L423.715 225.511H438.972L426.629 234.479L431.343 248.989L419 240.021L406.657 248.989L411.371 234.479L399.028 225.511H414.285L419 211Z" fill="white"/>
<path d="M461 211L465.715 225.511H480.972L468.629 234.479L473.343 248.989L461 240.021L448.657 248.989L453.371 234.479L441.028 225.511H456.285L461 211Z" fill="white"/>
<path d="M499 211L503.715 225.511H518.972L506.629 234.479L511.343 248.989L499 240.021L486.657 248.989L491.371 234.479L479.028 225.511H494.285L499 211Z" fill="white"/>
<path d="M537 211L541.715 225.511H556.972L544.629 234.479L549.343 248.989L537 240.021L524.657 248.989L529.371 234.479L517.028 225.511H532.285L537 211Z" fill="white"/>
</g>
<defs>
<filter id="filter0_d_25_79" x="353.028" y="55" width="47.9443" height="45.9893" filterUnits="userSpaceOnUse" color-interpolation-filters="sRGB">
<feFlood flood-opacity="0" result="BackgroundImageFix"/>
<feColorMatrix in="SourceAlpha" type="matrix" values="0 0 0 0 0 0 0 0 0 0 0 0 0 0 0 0 0 0 127 0" result="hardAlpha"/>
<feOffset dy="4"/>
<feGaussianBlur stdDeviation="2"/>
<feComposite in2="hardAlpha" operator="out"/>
<feColorMatrix type="matrix" values="0 0 0 0 0 0 0 0 0 0 0 0 0 0 0 0 0 0 0.25 0"/>
<feBlend mode="normal" in2="BackgroundImageFix" result="effect1_dropShadow_25_79"/>
<feBlend mode="normal" in="SourceGraphic" in2="effect1_dropShadow_25_79" result="shape"/>
</filter>
<filter id="filter1_d_25_79" x="395.028" y="55" width="47.9443" height="45.9893" filterUnits="userSpaceOnUse" color-interpolation-filters="sRGB">
<feFlood flood-opacity="0" result="BackgroundImageFix"/>
<feColorMatrix in="SourceAlpha" type="matrix" values="0 0 0 0 0 0 0 0 0 0 0 0 0 0 0 0 0 0 127 0" result="hardAlpha"/>
<feOffset dy="4"/>
<feGaussianBlur stdDeviation="2"/>
<feComposite in2="hardAlpha" operator="out"/>
<feColorMatrix type="matrix" values="0 0 0 0 0 0 0 0 0 0 0 0 0 0 0 0 0 0 0.25 0"/>
<feBlend mode="normal" in2="BackgroundImageFix" result="effect1_dropShadow_25_79"/>
<feBlend mode="normal" in="SourceGraphic" in2="effect1_dropShadow_25_79" result="shape"/>
</filter>
<filter id="filter2_d_25_79" x="437.028" y="55" width="47.9443" height="45.9893" filterUnits="userSpaceOnUse" color-interpolation-filters="sRGB">
<feFlood flood-opacity="0" result="BackgroundImageFix"/>
<feColorMatrix in="SourceAlpha" type="matrix" values="0 0 0 0 0 0 0 0 0 0 0 0 0 0 0 0 0 0 127 0" result="hardAlpha"/>
<feOffset dy="4"/>
<feGaussianBlur stdDeviation="2"/>
<feComposite in2="hardAlpha" operator="out"/>
<feColorMatrix type="matrix" values="0 0 0 0 0 0 0 0 0 0 0 0 0 0 0 0 0 0 0.25 0"/>
<feBlend mode="normal" in2="BackgroundImageFix" result="effect1_dropShadow_25_79"/>
<feBlend mode="normal" in="SourceGraphic" in2="effect1_dropShadow_25_79" result="shape"/>
</filter>
<filter id="filter3_d_25_79" x="475.028" y="55" width="47.9443" height="45.9893" filterUnits="userSpaceOnUse" color-interpolation-filters="sRGB">
<feFlood flood-opacity="0" result="BackgroundImageFix"/>
<feColorMatrix in="SourceAlpha" type="matrix" values="0 0 0 0 0 0 0 0 0 0 0 0 0 0 0 0 0 0 127 0" result="hardAlpha"/>
<feOffset dy="4"/>
<feGaussianBlur stdDeviation="2"/>
<feComposite in2="hardAlpha" operator="out"/>
<feColorMatrix type="matrix" values="0 0 0 0 0 0 0 0 0 0 0 0 0 0 0 0 0 0 0.25 0"/>
<feBlend mode="normal" in2="BackgroundImageFix" result="effect1_dropShadow_25_79"/>
<feBlend mode="normal" in="SourceGraphic" in2="effect1_dropShadow_25_79" result="shape"/>
</filter>
<filter id="filter4_d_25_79" x="513.028" y="55" width="47.9443" height="45.9893" filterUnits="userSpaceOnUse" color-interpolation-filters="sRGB">
<feFlood flood-opacity="0" result="BackgroundImageFix"/>
<feColorMatrix in="SourceAlpha" type="matrix" values="0 0 0 0 0 0 0 0 0 0 0 0 0 0 0 0 0 0 127 0" result="hardAlpha"/>
<feOffset dy="4"/>
<feGaussianBlur stdDeviation="2"/>
<feComposite in2="hardAlpha" operator="out"/>
<feColorMatrix type="matrix" values="0 0 0 0 0 0 0 0 0 0 0 0 0 0 0 0 0 0 0.25 0"/>
<feBlend mode="normal" in2="BackgroundImageFix" result="effect1_dropShadow_25_79"/>
<feBlend mode="normal" in="SourceGraphic" in2="effect1_dropShadow_25_79" result="shape"/>
</filter>
<filter id="filter5_d_25_79" x="353.028" y="107" width="207.944" height="45.9893" filterUnits="userSpaceOnUse" color-interpolation-filters="sRGB">
<feFlood flood-opacity="0" result="BackgroundImageFix"/>
<feColorMatrix in="SourceAlpha" type="matrix" values="0 0 0 0 0 0 0 0 0 0 0 0 0 0 0 0 0 0 127 0" result="hardAlpha"/>
<feOffset dy="4"/>
<feGaussianBlur stdDeviation="2"/>
<feComposite in2="hardAlpha" operator="out"/>
<feColorMatrix type="matrix" values="0 0 0 0 0 0 0 0 0 0 0 0 0 0 0 0 0 0 0.25 0"/>
<feBlend mode="normal" in2="BackgroundImageFix" result="effect1_dropShadow_25_79"/>
<feBlend mode="normal" in="SourceGraphic" in2="effect1_dropShadow_25_79" result="shape"/>
</filter>
<filter id="filter6_d_25_79" x="353.028" y="159" width="47.9443" height="45.9894" filterUnits="userSpaceOnUse" color-interpolation-filters="sRGB">
<feFlood flood-opacity="0" result="BackgroundImageFix"/>
<feColorMatrix in="SourceAlpha" type="matrix" values="0 0 0 0 0 0 0 0 0 0 0 0 0 0 0 0 0 0 127 0" result="hardAlpha"/>
<feOffset dy="4"/>
<feGaussianBlur stdDeviation="2"/>
<feComposite in2="hardAlpha" operator="out"/>
<feColorMatrix type="matrix" values="0 0 0 0 0 0 0 0 0 0 0 0 0 0 0 0 0 0 0.25 0"/>
<feBlend mode="normal" in2="BackgroundImageFix" result="effect1_dropShadow_25_79"/>
<feBlend mode="normal" in="SourceGraphic" in2="effect1_dropShadow_25_79" result="shape"/>
</filter>
<filter id="filter7_d_25_79" x="395.028" y="159" width="47.9443" height="45.9894" filterUnits="userSpaceOnUse" color-interpolation-filters="sRGB">
<feFlood flood-opacity="0" result="BackgroundImageFix"/>
<feColorMatrix in="SourceAlpha" type="matrix" values="0 0 0 0 0 0 0 0 0 0 0 0 0 0 0 0 0 0 127 0" result="hardAlpha"/>
<feOffset dy="4"/>
<feGaussianBlur stdDeviation="2"/>
<feComposite in2="hardAlpha" operator="out"/>
<feColorMatrix type="matrix" values="0 0 0 0 0 0 0 0 0 0 0 0 0 0 0 0 0 0 0.25 0"/>
<feBlend mode="normal" in2="BackgroundImageFix" result="effect1_dropShadow_25_79"/>
<feBlend mode="normal" in="SourceGraphic" in2="effect1_dropShadow_25_79" result="shape"/>
</filter>
<filter id="filter8_d_25_79" x="437.028" y="159" width="47.9443" height="45.9894" filterUnits="userSpaceOnUse" color-interpolation-filters="sRGB">
<feFlood flood-opacity="0" result="BackgroundImageFix"/>
<feColorMatrix in="SourceAlpha" type="matrix" values="0 0 0 0 0 0 0 0 0 0 0 0 0 0 0 0 0 0 127 0" result="hardAlpha"/>
<feOffset dy="4"/>
<feGaussianBlur stdDeviation="2"/>
<feComposite in2="hardAlpha" operator="out"/>
<feColorMatrix type="matrix" values="0 0 0 0 0 0 0 0 0 0 0 0 0 0 0 0 0 0 0.25 0"/>
<feBlend mode="normal" in2="BackgroundImageFix" result="effect1_dropShadow_25_79"/>
<feBlend mode="normal" in="SourceGraphic" in2="effect1_dropShadow_25_79" result="shape"/>
</filter>
<filter id="filter9_d_25_79" x="475.028" y="159" width="47.9443" height="45.9894" filterUnits="userSpaceOnUse" color-interpolation-filters="sRGB">
<feFlood flood-opacity="0" result="BackgroundImageFix"/>
<feColorMatrix in="SourceAlpha" type="matrix" values="0 0 0 0 0 0 0 0 0 0 0 0 0 0 0 0 0 0 127 0" result="hardAlpha"/>
<feOffset dy="4"/>
<feGaussianBlur stdDeviation="2"/>
<feComposite in2="hardAlpha" operator="out"/>
<feColorMatrix type="matrix" values="0 0 0 0 0 0 0 0 0 0 0 0 0 0 0 0 0 0 0.25 0"/>
<feBlend mode="normal" in2="BackgroundImageFix" result="effect1_dropShadow_25_79"/>
<feBlend mode="normal" in="SourceGraphic" in2="effect1_dropShadow_25_79" result="shape"/>
</filter>
<filter id="filter10_d_25_79" x="513.028" y="159" width="47.9443" height="45.9894" filterUnits="userSpaceOnUse" color-interpolation-filters="sRGB">
<feFlood flood-opacity="0" result="BackgroundImageFix"/>
<feColorMatrix in="SourceAlpha" type="matrix" values="0 0 0 0 0 0 0 0 0 0 0 0 0 0 0 0 0 0 127 0" result="hardAlpha"/>
<feOffset dy="4"/>
<feGaussianBlur stdDeviation="2"/>
<feComposite in2="hardAlpha" operator="out"/>
<feColorMatrix type="matrix" values="0 0 0 0 0 0 0 0 0 0 0 0 0 0 0 0 0 0 0.25 0"/>
<feBlend mode="normal" in2="BackgroundImageFix" result="effect1_dropShadow_25_79"/>
<feBlend mode="normal" in="SourceGraphic" in2="effect1_dropShadow_25_79" result="shape"/>
</filter>
<filter id="filter11_d_25_79" x="353.028" y="211" width="207.944" height="45.9894" filterUnits="userSpaceOnUse" color-interpolation-filters="sRGB">
<feFlood flood-opacity="0" result="BackgroundImageFix"/>
<feColorMatrix in="SourceAlpha" type="matrix" values="0 0 0 0 0 0 0 0 0 0 0 0 0 0 0 0 0 0 127 0" result="hardAlpha"/>
<feOffset dy="4"/>
<feGaussianBlur stdDeviation="2"/>
<feComposite in2="hardAlpha" operator="out"/>
<feColorMatrix type="matrix" values="0 0 0 0 0 0 0 0 0 0 0 0 0 0 0 0 0 0 0.25 0"/>
<feBlend mode="normal" in2="BackgroundImageFix" result="effect1_dropShadow_25_79"/>
<feBlend mode="normal" in="SourceGraphic" in2="effect1_dropShadow_25_79" result="shape"/>
</filter>
</defs>
</svg>
