<svg width="114" height="30" viewBox="0 0 114 30" fill="none" xmlns="http://www.w3.org/2000/svg">
<path d="M6.03267 0.454545L11.4819 17.5838H11.6911L17.1513 0.454545H22.4354L14.6634 23H8.5206L0.737571 0.454545H6.03267ZM28.0057 23.3192C26.9268 23.3192 25.9654 23.1321 25.1214 22.7578C24.2775 22.3762 23.6096 21.8147 23.1179 21.0735C22.6335 20.3249 22.3913 19.3929 22.3913 18.2773C22.3913 17.3379 22.5638 16.549 22.9087 15.9105C23.2537 15.272 23.7234 14.7583 24.3178 14.3693C24.9123 13.9804 25.5875 13.6868 26.3434 13.4886C27.1067 13.2905 27.9066 13.151 28.7433 13.0703C29.7267 12.9676 30.5193 12.8722 31.1211 12.7841C31.7229 12.6887 32.1596 12.5492 32.4311 12.3658C32.7027 12.1823 32.8384 11.9107 32.8384 11.5511V11.4851C32.8384 10.7879 32.6183 10.2485 32.1779 9.86683C31.7449 9.4852 31.1284 9.29439 30.3285 9.29439C29.4845 9.29439 28.813 9.48153 28.3139 9.85582C27.8149 10.2228 27.4846 10.6851 27.3232 11.2429L22.9858 10.8906C23.206 9.86316 23.639 8.97514 24.2848 8.22656C24.9306 7.47064 25.7636 6.89086 26.7837 6.48721C27.8112 6.07623 29.0001 5.87074 30.3505 5.87074C31.2899 5.87074 32.1889 5.98082 33.0476 6.20099C33.9136 6.42116 34.6805 6.76243 35.3484 7.22479C36.0236 7.68714 36.5556 8.2816 36.9446 9.00817C37.3336 9.72739 37.5281 10.5897 37.5281 11.5952V23H33.0806V20.6552H32.9485C32.677 21.1836 32.3137 21.6496 31.8587 22.0533C31.4036 22.4496 30.8569 22.7615 30.2184 22.989C29.5799 23.2092 28.8423 23.3192 28.0057 23.3192ZM29.3487 20.0827C30.0386 20.0827 30.6477 19.947 31.1761 19.6754C31.7045 19.3965 32.1192 19.0223 32.4201 18.5526C32.721 18.0829 32.8714 17.5508 32.8714 16.9563V15.1619C32.7247 15.2573 32.5228 15.3454 32.266 15.4261C32.0165 15.4995 31.7339 15.5692 31.4183 15.6353C31.1027 15.694 30.7872 15.7491 30.4716 15.8004C30.156 15.8445 29.8698 15.8848 29.6129 15.9215C29.0625 16.0022 28.5818 16.1307 28.1708 16.3068C27.7598 16.483 27.4406 16.7215 27.2131 17.0224C26.9856 17.3159 26.8718 17.6829 26.8718 18.1232C26.8718 18.7617 27.103 19.2498 27.5653 19.5874C28.035 19.9176 28.6295 20.0827 29.3487 20.0827ZM41.1664 23V6.09091H45.7129V9.04119H45.889C46.1973 7.99171 46.7147 7.1991 47.4412 6.66335C48.1678 6.12026 49.0044 5.84872 49.9512 5.84872C50.186 5.84872 50.4392 5.8634 50.7108 5.89275C50.9823 5.92211 51.2208 5.96248 51.4263 6.01385V10.1751C51.2061 10.109 50.9016 10.0503 50.5126 9.99893C50.1236 9.94756 49.7677 9.92188 49.4448 9.92188C48.7549 9.92188 48.1384 10.0723 47.5953 10.3732C47.0596 10.6668 46.6339 11.0778 46.3184 11.6062C46.0101 12.1346 45.856 12.7437 45.856 13.4336V23H41.1664ZM60.6817 29.6932C59.1626 29.6932 57.8599 29.484 56.7737 29.0657C55.6949 28.6547 54.8362 28.0933 54.1977 27.3814C53.5592 26.6695 53.1446 25.8696 52.9537 24.9815L57.2911 24.3981C57.4232 24.7357 57.6324 25.0513 57.9186 25.3448C58.2048 25.6384 58.5828 25.8732 59.0525 26.0494C59.5295 26.2328 60.1093 26.3246 60.7918 26.3246C61.8119 26.3246 62.6523 26.075 63.3128 25.576C63.9806 25.0843 64.3145 24.2586 64.3145 23.0991V20.0057H64.1164C63.9109 20.4754 63.6027 20.9194 63.1917 21.3377C62.7807 21.756 62.2523 22.0973 61.6064 22.3615C60.9606 22.6257 60.19 22.7578 59.2947 22.7578C58.025 22.7578 56.8691 22.4643 55.827 21.8771C54.7922 21.2827 53.9665 20.3763 53.3501 19.158C52.7409 17.9324 52.4363 16.3839 52.4363 14.5124C52.4363 12.5969 52.7483 10.997 53.3721 9.71271C53.9959 8.42838 54.8252 7.46697 55.86 6.82848C56.9021 6.18999 58.0434 5.87074 59.2836 5.87074C60.2304 5.87074 61.023 6.0322 61.6615 6.35511C62.3 6.67069 62.8137 7.067 63.2027 7.54403C63.599 8.01373 63.9036 8.47609 64.1164 8.93111H64.2925V6.09091H68.9491V23.1651C68.9491 24.6036 68.5969 25.8072 67.8923 26.7759C67.1878 27.7447 66.2117 28.4712 64.964 28.9556C63.7238 29.4473 62.2963 29.6932 60.6817 29.6932ZM60.7808 19.2351C61.5367 19.2351 62.1752 19.0479 62.6963 18.6737C63.2247 18.292 63.6283 17.7489 63.9072 17.0444C64.1934 16.3325 64.3366 15.4812 64.3366 14.4904C64.3366 13.4996 64.1971 12.641 63.9182 11.9144C63.6394 11.1805 63.2357 10.6117 62.7073 10.2081C62.1789 9.80445 61.5367 9.60263 60.7808 9.60263C60.0102 9.60263 59.3607 9.81179 58.8323 10.2301C58.3039 10.6411 57.9039 11.2135 57.6324 11.9474C57.3608 12.6813 57.2251 13.529 57.2251 14.4904C57.2251 15.4665 57.3608 16.3105 57.6324 17.0224C57.9113 17.7269 58.3112 18.2737 58.8323 18.6626C59.3607 19.0443 60.0102 19.2351 60.7808 19.2351ZM77.5028 23.3192C76.4239 23.3192 75.4625 23.1321 74.6185 22.7578C73.7745 22.3762 73.1067 21.8147 72.615 21.0735C72.1306 20.3249 71.8884 19.3929 71.8884 18.2773C71.8884 17.3379 72.0609 16.549 72.4058 15.9105C72.7507 15.272 73.2204 14.7583 73.8149 14.3693C74.4094 13.9804 75.0845 13.6868 75.8405 13.4886C76.6037 13.2905 77.4037 13.151 78.2403 13.0703C79.2238 12.9676 80.0164 12.8722 80.6182 12.7841C81.22 12.6887 81.6566 12.5492 81.9282 12.3658C82.1997 12.1823 82.3355 11.9107 82.3355 11.5511V11.4851C82.3355 10.7879 82.1153 10.2485 81.675 9.86683C81.242 9.4852 80.6255 9.29439 79.8256 9.29439C78.9816 9.29439 78.31 9.48153 77.811 9.85582C77.3119 10.2228 76.9817 10.6851 76.8202 11.2429L72.4829 10.8906C72.703 9.86316 73.136 8.97514 73.7819 8.22656C74.4277 7.47064 75.2607 6.89086 76.2808 6.48721C77.3083 6.07623 78.4972 5.87074 79.8476 5.87074C80.787 5.87074 81.686 5.98082 82.5447 6.20099C83.4107 6.42116 84.1776 6.76243 84.8454 7.22479C85.5206 7.68714 86.0527 8.2816 86.4417 9.00817C86.8306 9.72739 87.0251 10.5897 87.0251 11.5952V23H82.5777V20.6552H82.4456C82.174 21.1836 81.8108 21.6496 81.3557 22.0533C80.9007 22.4496 80.354 22.7615 79.7155 22.989C79.077 23.2092 78.3394 23.3192 77.5028 23.3192ZM78.8458 20.0827C79.5357 20.0827 80.1448 19.947 80.6732 19.6754C81.2016 19.3965 81.6163 19.0223 81.9172 18.5526C82.2181 18.0829 82.3685 17.5508 82.3685 16.9563V15.1619C82.2217 15.2573 82.0199 15.3454 81.7631 15.4261C81.5135 15.4995 81.231 15.5692 80.9154 15.6353C80.5998 15.694 80.2842 15.7491 79.9687 15.8004C79.6531 15.8445 79.3669 15.8848 79.11 15.9215C78.5596 16.0022 78.0789 16.1307 77.6679 16.3068C77.2569 16.483 76.9376 16.7215 76.7101 17.0224C76.4826 17.3159 76.3689 17.6829 76.3689 18.1232C76.3689 18.7617 76.6001 19.2498 77.0624 19.5874C77.5321 19.9176 78.1266 20.0827 78.8458 20.0827ZM104.732 10.9126L100.439 11.1768C100.366 10.8099 100.208 10.4796 99.9656 10.1861C99.7235 9.88518 99.4042 9.64666 99.0079 9.47052C98.6189 9.28705 98.1529 9.19531 97.6098 9.19531C96.8833 9.19531 96.2704 9.34943 95.7714 9.65767C95.2723 9.95857 95.0228 10.3622 95.0228 10.8686C95.0228 11.2723 95.1843 11.6135 95.5072 11.8924C95.8301 12.1713 96.3842 12.3951 97.1695 12.5639L100.23 13.1804C101.874 13.518 103.099 14.0611 103.907 14.8097C104.714 15.5582 105.118 16.5417 105.118 17.7599C105.118 18.8681 104.791 19.8406 104.138 20.6772C103.492 21.5138 102.604 22.167 101.474 22.6367C100.351 23.0991 99.0556 23.3303 97.5878 23.3303C95.3494 23.3303 93.566 22.8642 92.2377 21.9322C90.9166 20.9928 90.1424 19.7158 89.9149 18.1012L94.5274 17.859C94.6669 18.5415 95.0045 19.0626 95.5402 19.4222C96.076 19.7745 96.7622 19.9506 97.5988 19.9506C98.4208 19.9506 99.0813 19.7929 99.5803 19.4773C100.087 19.1544 100.344 18.7397 100.351 18.2333C100.344 17.8076 100.164 17.459 99.8115 17.1875C99.4593 16.9086 98.9162 16.6958 98.1823 16.549L95.254 15.9656C93.6027 15.6353 92.3734 15.0629 91.5661 14.2482C90.7662 13.4336 90.3662 12.3951 90.3662 11.1328C90.3662 10.0466 90.6598 9.11091 91.2469 8.32564C91.8414 7.54036 92.6743 6.9349 93.7458 6.50923C94.8247 6.08357 96.087 5.87074 97.5328 5.87074C99.6684 5.87074 101.349 6.32209 102.575 7.22479C103.808 8.12749 104.527 9.35677 104.732 10.9126ZM110.812 23.2862C110.085 23.2862 109.461 23.0294 108.94 22.5156C108.427 21.9946 108.17 21.3707 108.17 20.6442C108.17 19.925 108.427 19.3085 108.94 18.7947C109.461 18.281 110.085 18.0241 110.812 18.0241C111.516 18.0241 112.133 18.281 112.661 18.7947C113.19 19.3085 113.454 19.925 113.454 20.6442C113.454 21.1286 113.329 21.5726 113.08 21.9762C112.837 22.3725 112.518 22.6918 112.122 22.9339C111.725 23.1688 111.289 23.2862 110.812 23.2862Z" fill="white"/>
</svg>
